<?xml version="1.0" encoding="UTF-8"?>
<svg version="1.1" xmlns="http://www.w3.org/2000/svg" width="1024" height="1024">
<path d="M0 0 C48.51 0 97.02 0 147 0 C147 48.18 147 96.36 147 146 C195.18 146 243.36 146 293 146 C293 194.18 293 242.36 293 292 C341.18 292 389.36 292 439 292 C439 243.82 439 195.64 439 146 C487.18 146 535.36 146 585 146 C585 97.82 585 49.64 585 0 C633.51 0 682.02 0 732 0 C732 193.05 732 386.1 732 585 C780.18 585 828.36 585 878 585 C878 633.51 878 682.02 878 732 C733.13 732 588.26 732 439 732 C439 683.82 439 635.64 439 586 C390.82 586 342.64 586 293 586 C293 634.18 293 682.36 293 732 C148.13 732 3.26 732 -146 732 C-146 683.49 -146 634.98 -146 585 C-97.82 585 -49.64 585 0 585 C0 391.95 0 198.9 0 0 Z M147 439 C147 487.18 147 535.36 147 585 C194.85 585 242.7 585 292 585 C292 536.82 292 488.64 292 439 C244.15 439 196.3 439 147 439 Z M440 439 C440 487.18 440 535.36 440 585 C487.85 585 535.7 585 585 585 C585 536.82 585 488.64 585 439 C537.15 439 489.3 439 440 439 Z " fill="#FF8105" transform="translate(146,145)"/>
<path d="M0 0 C144.87 0 289.74 0 439 0 C439 48.51 439 97.02 439 147 C294.13 147 149.26 147 0 147 C0 98.49 0 49.98 0 0 Z " fill="#E10500" transform="translate(585,730)"/>
<path d="M0 0 C144.87 0 289.74 0 439 0 C439 48.51 439 97.02 439 147 C294.13 147 149.26 147 0 147 C0 98.49 0 49.98 0 0 Z " fill="#E10500" transform="translate(0,730)"/>
<path d="M0 0 C48.51 0 97.02 0 147 0 C147 96.69 147 193.38 147 293 C50.31 293 -46.38 293 -146 293 C-146 244.49 -146 195.98 -146 146 C-97.82 146 -49.64 146 0 146 C0 97.82 0 49.64 0 0 Z " fill="#FFAE00" transform="translate(731,145)"/>
<path d="M0 0 C48.51 0 97.02 0 147 0 C147 48.18 147 96.36 147 146 C195.18 146 243.36 146 293 146 C293 194.51 293 243.02 293 293 C196.31 293 99.62 293 0 293 C0 196.31 0 99.62 0 0 Z " fill="#FFAE00" transform="translate(146,145)"/>
<path d="M0 0 C48.84 0 97.68 0 148 0 C148.020625 24.069375 148.04125 48.13875 148.0625 72.9375 C148.071604 80.55062256 148.08070801 88.16374512 148.09008789 96.00756836 C148.09460449 105.27062988 148.09460449 105.27062988 148.09544373 109.6006012 C148.09637918 112.63889794 148.10014172 115.67717739 148.10557556 118.71546936 C148.11240275 122.583704 148.11449711 126.45191325 148.11307228 130.32015336 C148.11337049 131.74435255 148.11537219 133.16855257 148.11921513 134.59274662 C148.12414424 136.50749839 148.12240365 138.42226396 148.12025452 140.33702087 C148.12163721 141.95061949 148.12163721 141.95061949 148.12304783 143.59681606 C148 146 148 146 147 147 C145.11669453 147.09873281 143.22964162 147.12632187 141.34375 147.12698364 C140.115354 147.12980347 138.88695801 147.13262329 137.62133789 147.13552856 C136.24755845 147.13358397 134.87377915 147.13153578 133.5 147.12939453 C132.06306921 147.13074853 130.62613877 147.13252846 129.18920898 147.13470459 C125.27609411 147.13927906 121.36300549 147.13748931 117.44989014 147.1343255 C113.3637281 147.13180197 109.27756837 147.13413942 105.19140625 147.13571167 C98.32812088 147.13753339 91.46484625 147.13512701 84.6015625 147.13037109 C76.65527994 147.12492847 68.70902303 147.12669112 60.76274109 147.1321975 C53.95256836 147.13672857 47.14240337 147.13737921 40.33222961 147.13475883 C36.25940531 147.13319602 32.18659307 147.13300239 28.11376953 147.13629532 C24.28564243 147.13917395 20.45754855 147.13719849 16.62942505 147.13140106 C15.22046972 147.13007342 13.81151162 147.13046765 12.40255737 147.13266373 C10.48712257 147.13537504 8.57168168 147.13138058 6.65625 147.12698364 C5.58181641 147.12660662 4.50738281 147.12622959 3.40039062 147.12584114 C1 147 1 147 0 146 C-0.09654727 144.11438482 -0.12187241 142.22510545 -0.12025452 140.33702087 C-0.12163201 139.10974998 -0.12300951 137.88247908 -0.12442875 136.61801815 C-0.12088149 135.24005549 -0.11724359 133.86209307 -0.11352539 132.48413086 C-0.11321928 131.02221206 -0.11335216 129.5602931 -0.11389065 128.09837437 C-0.11411716 124.17015673 -0.10830564 120.24196933 -0.10128021 116.31375885 C-0.09560101 112.63271485 -0.09531795 108.95167834 -0.09460449 105.27062988 C-0.08934936 94.49291589 -0.07538831 83.71520757 -0.0625 72.9375 C-0.041875 48.868125 -0.02125 24.79875 0 0 Z " fill="#F94F0F" transform="translate(438,584)"/>
<path d="M0 0 C48.51 0 97.02 0 147 0 C147 48.18 147 96.36 147 146 C98.49 146 49.98 146 0 146 C0 97.82 0 49.64 0 0 Z " fill="#F94F0E" transform="translate(731,584)"/>
<path d="M0 0 C48.51 0 97.02 0 147 0 C147 48.18 147 96.36 147 146 C98.49 146 49.98 146 0 146 C0 97.82 0 49.64 0 0 Z " fill="#F94F0E" transform="translate(146,584)"/>
<path d="M0 0 C48.51 0 97.02 0 147 0 C147 48.18 147 96.36 147 146 C98.49 146 49.98 146 0 146 C0 97.82 0 49.64 0 0 Z " fill="#FFD600" transform="translate(731,145)"/>
<path d="M0 0 C48.51 0 97.02 0 147 0 C147 48.18 147 96.36 147 146 C98.49 146 49.98 146 0 146 C0 97.82 0 49.64 0 0 Z " fill="#FFD600" transform="translate(146,145)"/>
</svg>
